<svg width="55" height="55" viewBox="0 0 55 55" fill="none" xmlns="http://www.w3.org/2000/svg">
<mask id="mask0_25_166" style="mask-type:alpha" maskUnits="userSpaceOnUse" x="0" y="0" width="55" height="55">
<path d="M20.1222 22.8465C20.282 23.0061 20.4088 23.1956 20.4953 23.4043C20.5818 23.613 20.6263 23.8366 20.6263 24.0625C20.6263 24.2883 20.5818 24.512 20.4953 24.7207C20.4088 24.9293 20.282 25.1189 20.1222 25.2785L13.2472 32.1535C13.0876 32.3133 12.8981 32.4401 12.6894 32.5266C12.4808 32.6131 12.2571 32.6576 12.0312 32.6576C11.8054 32.6576 11.5817 32.6131 11.3731 32.5266C11.1644 32.4401 10.9748 32.3133 10.8152 32.1535L7.37771 28.716C7.21802 28.5563 7.09135 28.3667 7.00493 28.1581C6.9185 27.9494 6.87402 27.7258 6.87402 27.5C6.87402 27.0439 7.05521 26.6065 7.37771 26.284C7.70022 25.9615 8.13763 25.7803 8.59373 25.7803C9.04982 25.7803 9.48724 25.9615 9.80974 26.284L12.0312 28.5076L17.6902 22.8465C17.8498 22.6867 18.0394 22.5599 18.248 22.4734C18.4567 22.3869 18.6804 22.3424 18.9062 22.3424C19.1321 22.3424 19.3558 22.3869 19.5644 22.4734C19.7731 22.5599 19.9626 22.6867 20.1222 22.8465ZM17.6902 9.09646L12.0312 14.7576L9.80974 12.534C9.48724 12.2115 9.04982 12.0303 8.59373 12.0303C8.13763 12.0303 7.70022 12.2115 7.37771 12.534C7.05521 12.8565 6.87402 13.2939 6.87402 13.75C6.87402 14.2061 7.05521 14.6435 7.37771 14.966L10.8152 18.4035C10.9748 18.5633 11.1644 18.6901 11.3731 18.7766C11.5817 18.8631 11.8054 18.9076 12.0312 18.9076C12.2571 18.9076 12.4808 18.8631 12.6894 18.7766C12.8981 18.6901 13.0876 18.5633 13.2472 18.4035L20.1222 11.5285C20.4448 11.206 20.6259 10.7686 20.6259 10.3125C20.6259 9.85638 20.4448 9.41897 20.1222 9.09646C19.7997 8.77396 19.3623 8.59277 18.9062 8.59277C18.4501 8.59277 18.0127 8.77396 17.6902 9.09646ZM17.6902 36.5965L12.0312 42.2576L9.80974 40.034C9.65005 39.8743 9.46048 39.7476 9.25183 39.6612C9.04319 39.5748 8.81956 39.5303 8.59373 39.5303C8.36789 39.5303 8.14427 39.5748 7.93563 39.6612C7.72698 39.7476 7.5374 39.8743 7.37771 40.034C7.21802 40.1937 7.09135 40.3832 7.00493 40.5919C6.9185 40.8005 6.87402 41.0241 6.87402 41.25C6.87402 41.4758 6.9185 41.6994 7.00493 41.9081C7.09135 42.1167 7.21802 42.3063 7.37771 42.466L10.8152 45.9035C10.9748 46.0633 11.1644 46.1901 11.3731 46.2766C11.5817 46.3631 11.8054 46.4076 12.0312 46.4076C12.2571 46.4076 12.4808 46.3631 12.6894 46.2766C12.8981 46.1901 13.0876 46.0633 13.2472 45.9035L20.1222 39.0285C20.4448 38.706 20.6259 38.2686 20.6259 37.8125C20.6259 37.3564 20.4448 36.919 20.1222 36.5965C19.7997 36.274 19.3623 36.0928 18.9062 36.0928C18.4501 36.0928 18.0127 36.274 17.6902 36.5965ZM46.4062 10.3125H27.5C27.0441 10.3125 26.607 10.4936 26.2846 10.8159C25.9623 11.1382 25.7812 11.5754 25.7812 12.0312V15.4687C25.7812 15.9246 25.9623 16.3617 26.2846 16.6841C26.607 17.0064 27.0441 17.1875 27.5 17.1875H46.4062C46.8621 17.1875 47.2992 17.0064 47.6216 16.6841C47.9439 16.3617 48.125 15.9246 48.125 15.4687V12.0312C48.125 11.5754 47.9439 11.1382 47.6216 10.8159C47.2992 10.4936 46.8621 10.3125 46.4062 10.3125ZM46.4062 37.8125H27.5C27.0441 37.8125 26.607 37.9936 26.2846 38.3159C25.9623 38.6382 25.7812 39.0754 25.7812 39.5312V42.9687C25.7812 43.4246 25.9623 43.8617 26.2846 44.1841C26.607 44.5064 27.0441 44.6875 27.5 44.6875H46.4062C46.8621 44.6875 47.2992 44.5064 47.6216 44.1841C47.9439 43.8617 48.125 43.4246 48.125 42.9687V39.5312C48.125 39.0754 47.9439 38.6382 47.6216 38.3159C47.2992 37.9936 46.8621 37.8125 46.4062 37.8125ZM46.4062 24.0625H27.5C27.0441 24.0625 26.607 24.2436 26.2846 24.5659C25.9623 24.8882 25.7812 25.3254 25.7812 25.7812V29.2187C25.7812 29.6746 25.9623 30.1117 26.2846 30.4341C26.607 30.7564 27.0441 30.9375 27.5 30.9375H46.4062C46.8621 30.9375 47.2992 30.7564 47.6216 30.4341C47.9439 30.1117 48.125 29.6746 48.125 29.2187V25.7812C48.125 25.3254 47.9439 24.8882 47.6216 24.5659C47.2992 24.2436 46.8621 24.0625 46.4062 24.0625Z" fill="white"/>
</mask>
<g mask="url(#mask0_25_166)">
<rect x="-4" y="-4" width="85" height="69" fill="#1A3F42"/>
</g>
</svg>
