<svg width="47" height="47" viewBox="0 0 47 47" fill="none" xmlns="http://www.w3.org/2000/svg">
<mask id="mask0_25_172" style="mask-type:alpha" maskUnits="userSpaceOnUse" x="0" y="0" width="47" height="47">
<path d="M42.5938 38.1875C42.5938 38.577 42.439 38.9506 42.1636 39.2261C41.8881 39.5015 41.5145 39.6562 41.125 39.6562H5.875C5.48546 39.6562 5.11188 39.5015 4.83644 39.2261C4.56099 38.9506 4.40625 38.577 4.40625 38.1875C4.40625 37.798 4.56099 37.4244 4.83644 37.1489C5.11188 36.8735 5.48546 36.7188 5.875 36.7188H7.34375V24.9688C7.34375 24.5792 7.49849 24.2056 7.77394 23.9302C8.04938 23.6547 8.42296 23.5 8.8125 23.5H13.2188C13.6083 23.5 13.9819 23.6547 14.2573 23.9302C14.5328 24.2056 14.6875 24.5792 14.6875 24.9688V36.7188H17.625V16.1562C17.625 15.7667 17.7797 15.3931 18.0552 15.1177C18.3306 14.8422 18.7042 14.6875 19.0938 14.6875H24.9688C25.3583 14.6875 25.7319 14.8422 26.0073 15.1177C26.2828 15.3931 26.4375 15.7667 26.4375 16.1562V36.7188H29.375V7.34375C29.375 6.95421 29.5297 6.58063 29.8052 6.30519C30.0806 6.02974 30.4542 5.875 30.8438 5.875H38.1875C38.577 5.875 38.9506 6.02974 39.2261 6.30519C39.5015 6.58063 39.6562 6.95421 39.6562 7.34375V36.7188H41.125C41.5145 36.7188 41.8881 36.8735 42.1636 37.1489C42.439 37.4244 42.5938 37.798 42.5938 38.1875Z" fill="white"/>
</mask>
<g mask="url(#mask0_25_172)">
<rect x="-15" y="-16" width="90" height="77" fill="#8C9230"/>
</g>
</svg>
