<svg width="55" height="55" viewBox="0 0 55 55" fill="none" xmlns="http://www.w3.org/2000/svg">
<mask id="mask0_25_170" style="mask-type:alpha" maskUnits="userSpaceOnUse" x="0" y="0" width="55" height="55">
<path d="M51.5625 12.0313V25.7812C51.5627 26.1214 51.4621 26.4539 51.2733 26.7368C51.0844 27.0197 50.8159 27.2402 50.5017 27.3704C50.1874 27.5006 49.8416 27.5347 49.508 27.4683C49.1745 27.4018 48.8681 27.2379 48.6277 26.9973L42.9687 21.3361L30.4347 33.8723C30.2751 34.0321 30.0856 34.1588 29.8769 34.2453C29.6683 34.3318 29.4446 34.3764 29.2187 34.3764C28.9929 34.3764 28.7692 34.3318 28.5606 34.2453C28.3519 34.1588 28.1623 34.0321 28.0027 33.8723L20.625 26.4924L6.37224 40.7473C6.04974 41.0698 5.61232 41.251 5.15623 41.251C4.70013 41.251 4.26272 41.0698 3.94021 40.7473C3.61771 40.4248 3.43652 39.9873 3.43652 39.5312C3.43652 39.0752 3.61771 38.6377 3.94021 38.3152L19.409 22.8465C19.5686 22.6867 19.7581 22.5599 19.9668 22.4734C20.1755 22.3869 20.3991 22.3424 20.625 22.3424C20.8508 22.3424 21.0745 22.3869 21.2832 22.4734C21.4918 22.5599 21.6814 22.6867 21.841 22.8465L29.2187 30.2264L40.5388 18.9063L34.8777 13.2473C34.6371 13.0069 34.4732 12.7005 34.4067 12.3669C34.3403 12.0334 34.3743 11.6876 34.5045 11.3733C34.6347 11.0591 34.8552 10.7906 35.1381 10.6017C35.421 10.4129 35.7536 10.3122 36.0937 10.3125H49.8437C50.2996 10.3125 50.7367 10.4936 51.0591 10.8159C51.3814 11.1382 51.5625 11.5754 51.5625 12.0313Z" fill="white"/>
</mask>
<g mask="url(#mask0_25_170)">
<rect x="-11" y="-11" width="86" height="76" fill="#5C6E3F"/>
</g>
</svg>
