<svg width="24" height="24" viewBox="0 0 24 24" fill="none" xmlns="http://www.w3.org/2000/svg">
<path fill-rule="evenodd" clip-rule="evenodd" d="M19.23 15.0905L16.69 14.8037C16.08 14.7345 15.48 14.9421 15.05 15.3673L13.21 17.1869C10.38 15.7629 8.06004 13.4786 6.62004 10.6701L8.47004 8.84067C8.90004 8.41545 9.11004 7.82212 9.04004 7.2189L8.75004 4.7269C8.63004 3.72812 7.78004 2.97656 6.76004 2.97656H5.03004C3.90004 2.97656 2.96004 3.90612 3.03004 5.02356C3.56004 13.4687 10.39 20.2129 18.92 20.737C20.05 20.8062 20.99 19.8767 20.99 18.7592V17.0485C21 16.0497 20.24 15.2091 19.23 15.0905Z" fill="white"/>
</svg>
