<svg width="14" height="15" viewBox="0 0 14 15" fill="none" xmlns="http://www.w3.org/2000/svg">
<path d="M0.292893 12.7929C-0.0976311 13.1834 -0.0976311 13.8166 0.292893 14.2071C0.683418 14.5976 1.31658 14.5976 1.70711 14.2071L0.292893 12.7929ZM14 1.5C14 0.947714 13.5523 0.499999 13 0.499999L4 0.499999C3.44772 0.499999 3 0.947714 3 1.5C3 2.05228 3.44772 2.5 4 2.5L12 2.5L12 10.5C12 11.0523 12.4477 11.5 13 11.5C13.5523 11.5 14 11.0523 14 10.5L14 1.5ZM1 13.5L1.70711 14.2071L13.7071 2.20711L13 1.5L12.2929 0.792893L0.292893 12.7929L1 13.5Z" fill="white"/>
</svg>
